<svg version="1.2" xmlns="http://www.w3.org/2000/svg" viewBox="0 0 429 100" width="429" height="100">
	<title>HELLO_COMP_Kreslicí_WHITE-svg</title>
	<style>
		.s0 { fill: #ffffff } 
		.s1 { fill: #fdfdfd } 
	</style>
	<path id="Layer" class="s0" d="m111.4 0h-11q-0.2 0-0.3 0.1-0.2 0-0.3 0.2-0.1 0.1-0.2 0.3-0.1 0.1-0.1 0.3v63.3q0 0.2 0.1 0.4 0.1 0.1 0.2 0.3 0.1 0.1 0.3 0.2 0.1 0 0.3 0h11q0.1 0 0.3 0 0.2-0.1 0.3-0.2 0.1-0.2 0.2-0.3 0.1-0.2 0.1-0.4v-63.3q0-0.2-0.1-0.3-0.1-0.2-0.2-0.3-0.1-0.2-0.3-0.2-0.2-0.1-0.3-0.1z"/>
	<path id="Layer" class="s0" d="m26.6 15.9c-6.1 0-11 2.4-14 6.7v-21.7q0-0.2-0.1-0.3 0-0.2-0.2-0.3-0.1-0.2-0.2-0.2-0.2-0.1-0.4-0.1h-10.8q-0.2 0-0.3 0.1-0.2 0-0.3 0.2-0.2 0.1-0.2 0.3-0.1 0.1-0.1 0.3v63.3q0 0.2 0.1 0.4 0 0.1 0.2 0.3 0.1 0.1 0.3 0.2 0.1 0 0.3 0h10.9q0.2 0 0.4 0 0.1-0.1 0.3-0.2 0.1-0.2 0.2-0.3 0-0.2 0-0.4v-26.7c0-6.5 3.7-10.5 9.7-10.5 7.2 0 8.7 5.2 8.7 9.5v27.7q0 0.2 0 0.4 0.1 0.1 0.2 0.3 0.2 0.1 0.3 0.2 0.2 0 0.4 0h10.9q0.2 0 0.3 0 0.2-0.1 0.3-0.2 0.2-0.2 0.2-0.3 0.1-0.2 0.1-0.4v-30c0-11.3-6.6-18.3-17.2-18.3z"/>
	<path id="Layer" fill-rule="evenodd" class="s0" d="m71.7 15.8c13.5 0.1 22.3 9.5 22.3 24.3v3.5q0 0.2-0.1 0.3 0 0.2-0.2 0.3-0.1 0.2-0.3 0.2-0.1 0.1-0.3 0.1h-31.6c0.1 6.9 4.3 11.3 10.8 11.3 4.6 0 8.2-2.2 9.3-5.7q0-0.2 0.1-0.3 0.1-0.1 0.2-0.2 0.1-0.1 0.3-0.1 0.1-0.1 0.2-0.1c0.1 0 10.4 0 10.5 0q0.1 0.1 0.2 0.1 0.1 0 0.1 0.1 0.1 0.1 0.2 0.1 0.1 0.1 0.1 0.2 0 0.1 0.1 0.2 0 0.1 0 0.2 0 0.1 0 0.2c-1.5 9.3-10.1 15.6-21.5 15.6-14.3 0-23.3-9.6-23.3-25 0-15.3 9-25.2 22.9-25.3zm9.7 19.7c-0.5-5.6-4.5-9.4-9.7-9.4-5.2 0-9.3 3.8-10 9.4zm-9.7-19.7q-0.1 0-0.1 0"/>
	<path id="Layer" fill-rule="evenodd" class="s0" d="m408 16c12.5 0 20.3 9.6 20.3 25 0 15.1-7.9 24.9-20 24.9-5.9 0-10.9-2.4-13.9-6.5v20.1q0 0.2-0.1 0.4-0.1 0.2-0.2 0.3-0.1 0.1-0.3 0.2-0.1 0-0.3 0.1h-11q-0.1-0.1-0.3-0.1-0.2-0.1-0.3-0.2-0.1-0.1-0.2-0.3-0.1-0.2-0.1-0.4v-61.8q0-0.2 0.1-0.3 0.1-0.2 0.2-0.3 0.1-0.2 0.3-0.2 0.2-0.1 0.3-0.1h10.7q0.2 0 0.3 0.1 0.2 0 0.3 0.2 0.1 0.1 0.2 0.3 0.1 0.1 0.1 0.3v5.1q1.2-1.6 2.7-2.9 1.6-1.3 3.4-2.2 1.9-0.9 3.9-1.3 1.9-0.5 4-0.4m7.2 25c0-8.8-4-14.2-10.6-14.2-6.3 0-10.4 5.6-10.4 14.2 0 8.6 4.1 14.1 10.4 14.1 6.6 0 10.6-5.4 10.6-14.1z"/>
	<path id="Layer" class="s0" d="m131.9 0h-10.9q-0.2 0-0.3 0.1-0.2 0-0.3 0.2-0.2 0.1-0.2 0.3-0.1 0.1-0.1 0.3v63.3q0 0.2 0.1 0.4 0 0.1 0.2 0.3 0.1 0.1 0.3 0.2 0.1 0 0.3 0h10.9q0.2 0 0.4 0 0.1-0.1 0.3-0.2 0.1-0.2 0.2-0.3 0-0.2 0-0.4v-63.3q0-0.2 0-0.3-0.1-0.2-0.2-0.3-0.2-0.2-0.3-0.2-0.2-0.1-0.4-0.1z"/>
	<path id="Layer" class="s0" d="m250.3 47h-10.3q-0.2 0-0.3 0.1-0.2 0-0.3 0.1-0.1 0.1-0.2 0.2-0.1 0.2-0.1 0.3c-1 5-4.2 7.7-9.2 7.7-6.6 0-10.5-5.4-10.5-14.4 0-9.1 4-14.5 10.4-14.5 4.9 0 8.4 3 9.3 8q0 0.1 0.1 0.3 0 0.1 0.2 0.2 0.1 0.1 0.2 0.2 0.2 0 0.3 0h10.4q0.1 0 0.2 0 0 0 0.1-0.1 0.1 0 0.2-0.1 0.1 0 0.1-0.1 0.1 0 0.1-0.1 0.1-0.1 0.1-0.2 0.1-0.1 0.1-0.2 0-0.1 0-0.2c-0.9-11-9.5-18.4-21.6-18.4-14.1 0-23.2 9.9-23.2 25.2 0 15.4 9 25.1 23.3 25.1 12.1 0 20.6-7.1 21.5-18.1q0-0.2 0-0.4-0.1-0.2-0.2-0.3-0.1-0.2-0.3-0.2-0.2-0.1-0.4-0.1z"/>
	<path id="Layer" class="s0" d="m358.6 15.9c-6.3 0-11.7 3.1-14.5 8.2-2.2-5.2-6.9-8.2-13.2-8.2q-1.9 0-3.7 0.4-1.8 0.4-3.4 1.3-1.7 0.8-3 2.1-1.4 1.2-2.5 2.7v-4.7q0-0.2 0-0.3-0.1-0.2-0.2-0.3-0.2-0.2-0.3-0.2-0.2-0.1-0.4-0.1h-10.5q-0.1 0-0.3 0.1-0.2 0-0.3 0.2-0.1 0.1-0.2 0.3-0.1 0.1-0.1 0.3v46.5q0 0.2 0.1 0.4 0.1 0.1 0.2 0.3 0.1 0.1 0.3 0.2 0.2 0 0.3 0h11q0.1 0 0.3 0 0.2-0.1 0.3-0.2 0.1-0.2 0.2-0.3 0.1-0.2 0.1-0.4v-28.4c0-5.2 3.3-8.8 8-8.8 4.7 0 7.3 2.7 7.3 7.4v29.8q0 0.2 0.1 0.4 0.1 0.1 0.2 0.3 0.1 0.1 0.3 0.2 0.1 0 0.3 0h10.6q0.2 0 0.4 0 0.2-0.1 0.3-0.2 0.1-0.2 0.2-0.3 0-0.2 0.1-0.4v-28.7c0-5.1 3.2-8.5 8-8.5 4.8 0 7.4 2.7 7.4 8v29.2q0 0.2 0.1 0.4 0 0.1 0.2 0.3 0.1 0.1 0.3 0.2 0.1 0 0.3 0h10.9q0.2 0 0.4 0 0.1-0.1 0.3-0.2 0.1-0.2 0.2-0.3 0-0.2 0-0.4v-31.9c0-9.8-6.4-16.4-16-16.4"/>
	<path id="Layer" fill-rule="evenodd" class="s0" d="m161.8 15.9c14.2 0 23.4 9.8 23.4 25.1 0 15.4-9 25.1-23.4 25.1-14.4 0-23.4-9.7-23.4-25.1 0-15.3 9.1-25.2 23.4-25.2m10.5 25.2c0-9.2-3.9-14.7-10.5-14.7-6.6 0-10.5 5.5-10.5 14.7 0 9.1 3.9 14.6 10.5 14.6 6.5 0 10.5-5.5 10.5-14.6z"/>
	<path id="Layer" fill-rule="evenodd" class="s1" d="m277.4 15.9c14.2 0 23.4 9.8 23.4 25.1 0 15.4-9 25.1-23.4 25.1-14.4 0-23.4-9.6-23.4-25.1 0-15.3 9.2-25.2 23.4-25.2m10.5 25.2c0-9.2-3.9-14.7-10.5-14.7-6.6 0-10.5 5.5-10.5 14.7 0 9.1 3.9 14.6 10.5 14.6 6.6 0 10.5-5.4 10.5-14.6z"/>
	<path id="Layer" class="s0" d="m235.7 76.2q-0.2-0.1-0.3-0.1-0.2 0-0.4 0-0.2 0-0.3 0.1-0.2 0.1-0.3 0.2-0.8 0.6-1.6 1.2-0.8 0.6-1.7 1.1-0.8 0.6-1.7 1-0.9 0.5-1.9 0.9-1.1 0.5-2.3 1-1.1 0.5-2.3 0.9-1.2 0.5-2.4 0.8-1.2 0.4-2.4 0.8-1.3 0.4-2.7 0.7-1.3 0.3-2.7 0.6-1.3 0.3-2.7 0.6-1.3 0.2-2.7 0.4-1.4 0.2-2.7 0.4-1.4 0.1-2.8 0.2-1.4 0.1-2.8 0.2-1.3 0-2.7 0.1-1.4-0.1-2.8-0.1-1.3-0.1-2.7-0.2-1.4-0.1-2.8-0.2-1.3-0.2-2.7-0.4-1.4-0.2-2.7-0.4-1.4-0.3-2.8-0.6-1.3-0.3-2.7-0.6-1.3-0.3-2.7-0.7-1.2-0.4-2.4-0.8-1.2-0.3-2.3-0.8-1.2-0.4-2.4-0.9-1.2-0.5-2.3-1-0.9-0.4-1.8-0.9-0.9-0.4-1.8-1-0.8-0.5-1.6-1.1-0.9-0.6-1.6-1.2-0.3-0.2-0.7-0.3-0.3 0-0.6 0.1-0.3 0.2-0.5 0.5-0.2 0.3-0.2 0.6v8.3q0 0.2 0 0.3 0 0.1 0.1 0.3 0 0.1 0.1 0.2 0.1 0.1 0.2 0.2 1.4 1.1 2.8 2.1 1.4 1 2.9 1.9 1.4 0.9 2.9 1.7 1.6 0.9 3.1 1.6 1.6 0.7 3.2 1.3 1.6 0.6 3.3 1.1 1.6 0.5 3.3 1 1.6 0.4 3.3 0.7 3.7 0.7 7.4 1 3.8 0.4 7.5 0.4 3.7 0 7.4-0.4 3.8-0.3 7.4-1 1.7-0.3 3.4-0.8 1.7-0.4 3.3-0.9 1.7-0.5 3.3-1.2 1.6-0.6 3.2-1.3 1.6-0.7 3.1-1.5 1.5-0.8 3-1.7 1.4-0.9 2.8-1.9 1.5-1 2.8-2.1 0.1-0.1 0.2-0.2 0.1-0.1 0.1-0.3 0.1-0.1 0.1-0.2 0.1-0.2 0.1-0.3v-8.3q0-0.1-0.1-0.3 0-0.2-0.1-0.3-0.1-0.2-0.3-0.3-0.1-0.1-0.3-0.2z"/>
</svg>